<?xml version="1.0" encoding="utf-8"?>

<!DOCTYPE svg PUBLIC "-//W3C//DTD SVG 1.1//EN" "http://www.w3.org/Graphics/SVG/1.1/DTD/svg11.dtd">
<svg version="1.1" id="Layer_1" xmlns="http://www.w3.org/2000/svg" xmlns:xlink="http://www.w3.org/1999/xlink" x="0px" y="0px"
	 viewBox="0 0 2442 1634.55" enable-background="new 0 0 2442 1634.55" xml:space="preserve">
<g id="Brain_Silhouette">
</g>
<g>
	<g>
		<path d="M753.236,180.153c0.98-1.076,0.996-1.109,1.718-3.604c2.26-7.797,6.539-15.517,11.318-20.412
			c1.84-1.889,2.251-2.046,5.897-4.229c0.444-5.166,0.468-14.112,8.935-25.058c4.073-5.264,10.62-11.155,18.151-15.18
			c0.75-3.087,2.378-7.094,8.174-12.595c3.511-3.335,7.316-13.851,27.642-24.406c15.997-8.307,29.636-9.85,32.97-11.407
			c12.68-5.928,24.452-6.934,36.604-6.619c14.527-7.803,28.881-8.335,44.721-4.537c15.289-2.349,27.819-1.165,41.273,3.958
			c25.721-2.512,45.867,4.453,61.106,18.833c21.987-2.925,41.41,29.585,51.783,35.674c8.553,5.037,14.645,15.671,17.946,25.538
			c1.262,3.774,1.547,2.877,4.14,8.028c3.072,6.127,5.305,14.699,1.003,20.048c-0.701,0.863-0.669,0.805,0.295,2.495
			c6.92,12.058-1.705,27.384-11.235,37.504c-3.519,17.094-14.397,32.817-53.345,39.989c-1.296,4.135-2.68,5.413-6.519,9.352
			l-0.242,2.108c-0.494,4.205-1.432,3.625-1.069,5.328c2.375,10.947-14.519,18.337-17.764,21.03
			c-25.645,21.224-48.359,17.188-55.698,17.916c-8.65,0.85-30.128-3.693-30.128-3.693s-5.576,14.181-17.814,23.003
			c-3.613,2.614-23.084,39.025-24.528,43.073c-2.811,7.842-8.204,15.834-16.139,17.913c-3.014,0.795-5.939-0.11-7.634-0.321
			c-11.82-1.452,4.547-27.929,3.217-31.378c-0.131-0.342-1.703,0.327-8.462,1.744c-5.048,1.062-2.685,0.821-10.646,0.96
			c-16.192,0.276-13.134,3.024-34.188-1.794c-10.146-2.323-16.189-4.653-22.652-8.737c-8.276-5.229-14.561-13.191-15.18-19.24
			c-0.109-1.059-0.119-1.072-1.357-2.336c-2.24-2.287-3.035-4.137-3.776-8.76c-0.522-3.267-0.355-1.302,1.003-8.372
			c-2.239-0.002-7.224,0.035-9.527-0.215c-29.549-3.214-40.67-28.849-41.919-58.425
			C741.165,239.899,740.077,194.614,753.236,180.153z"/>
		<path fill="#010101" d="M60.603,282.869c-20.377-23.746-34.506-54.025-34.792-85.686c-0.143-24.032,10.856-46.523,25.192-65.23
			c4.482-5.214,4.355-12.445,5.515-18.835c1.653-9.6,2.178-19.359,4.069-28.912c0.938,8.806,1.558,17.786,4.959,26.082
			c6.691-12.286,12.048-25.463,20.631-36.605c11.698-13.208,28.307-20.249,41.897-31.137c4.911-3.783,8.567-8.837,11.603-14.178
			c0.413,6.437,0.509,12.89-0.35,19.312c12.938-4.657,26.384-7.661,39.894-10.013c16.816-4.069,33.108-10.602,47.429-20.393
			c-4.419,7.804-11.793,13.32-19.645,17.372c38.972-1.987,78.168,5.07,114.486,19.153c24.493,9.982,41.182,32.25,52.976,55.058
			c12.938,23.667,17.738,50.655,20.265,77.231c5.929-2.829,11.651-6.087,17.245-9.489c-4.101,7.327-9.171,14.114-15.275,19.9
			c3.386,11.174,14.957,16.308,25.399,18.771c4.705,1.653,12.509,2.289,12.779,8.726c1.574,8.742-3.052,17.182-10.204,22.013
			c1.685,3.942,3.227,8.234,6.739,10.967c2.718,2.527,6.405,4.037,8.662,6.994c-2.448,7.629-8.71,13.192-15.386,17.197
			c2.543,3.29,4.625,6.898,6.278,10.697c-3.83,3.719-7.613,7.486-11.507,11.174c2.925,7.613,8.138,14.623,8.758,22.92
			c-1.621,11.031-11.73,18.215-21.537,21.791c-4.037,1.828-9.346,1.86-11.953,6.008c-7.438,9.68-17.706,16.8-28.53,22.252
			c-4.26,2.241-9.012,3.369-13.828,3.639c5.976,15.37,14.257,29.659,21.711,44.314c1.764,3.243,3.211,6.977,6.66,8.806
			c12.525,8.169,24.875,16.625,37.463,24.716c14.273,7.454,23.937,20.742,35.095,31.9c1.367,1.144,2.638,2.813,4.546,2.861
			c38.48,2.591,77.151-2.543,114.312-12.493c45.743-12.191,89.755-30.024,135.578-41.913c1.78-0.397,3.529-0.286,5.213,0.35
			c26.464-7.899,52.769-16.339,79.201-24.318c4.196-1.319,8.774-2.257,11.921-5.547c11.444-10.315,24.414-20.154,39.942-22.904
			c14.941-2.607,29.913,1.923,43.519,7.772c11.428-9.33,23.778-19.343,38.925-21.187c5.738-0.858,10.856,2.32,14.511,6.405
			c-0.296-0.331,19.498-11.619,21.416-12.468c6.289-2.784,21.538-7.908,26.807-0.995c1.062,1.099,1.182,2.418,0.995,3.797
			c-0.983,7.211-10.358,12.443-15.575,16.32c-7.552,5.612-15.233,11.312-20.88,18.951c-19.645,22.697-40.944,44.758-67.106,59.953
			c-4.673,2.957-10.347,3.131-15.719,3.306c-15.354,0.08-30.692-1.256-46.062-1.049c-4.546,0.206-9.521-0.62-13.669,1.796
			c-28.196,14.337-56.457,28.531-84.669,42.804c4.8,11.158,6.421,23.762,3.052,35.571c-52.928,21.235-105.633,43.058-158.561,64.356
			c16.45,26.734,27.64,56.457,34.443,87.037c8.09,36.461,11.619,73.893,11.062,111.228c1.78,39.116,3.958,78.232,5.865,117.364
			c-8.201-0.779-16.435-1.24-24.668-1.78c-17.5,65.453-43.82,128.124-71.731,189.715c-26.273,57.728-54.39,114.63-79.535,172.882
			c-19.836,2.591-39.688,5.15-59.46,8.233c-6.811,34.934-13.843,69.824-20.857,104.717c-4.002,19.91-6.406,40.094-8.459,60.285
			c-1.05,10.324-2.001,20.657-3.035,30.982c-0.851,8.494-4.19,18.76,0.851,26.426c9.811,14.904,27.758,20.784,43.14,28.031
			c33.463,17.256,90.438,36.657,104.911,46.285c4.239,2.051,5.435,6.598,6.905,10.597c-0.702,0.126-1.406,0.224-2.109,0.335
			c-0.263,2.16-1.635,4.167-4.366,4.754c-43.994,9.456-89.509,10.964-134.27,8.18c-29.597-1.84-62.554-1.196-90.395-10.981
			c-0.795-0.28-1.472-0.755-2.032-1.34c-2.672-0.339-5.078-1.208-6.896-3.531c-2.348-2.999-3.645-8.368-3.915-12.124
			c-0.576-8.008,1.967-16.208,4.262-23.773c3.136-10.336,6.802-20.501,9.758-30.894c3.176-11.165,7.544-22.787,7.474-34.423
			c-0.234-38.881-1.188-77.749-4.352-116.514c-1.046-12.47-1.571-25.005-0.988-37.513c0.291-6.232,0.851-12.454,1.759-18.628
			c0.266-1.806,2.142-17.273,3.574-17.474c-6.58,0.922-13.208,1.78-19.788,2.829c5.817-35.794,7.216-72.144,7.2-108.352
			c-0.095-87.546-9.442-174.79-8.869-262.336c0.143-26.925,2.32-53.913,7.423-80.361c4.578-14.782,9.505-29.977,19.995-41.754
			c-3.052-36.589-5.086-73.273-9.155-109.782c-8.154-82.841-22.459-165.142-43.884-245.599
			c-3.608-15.577-9.552-30.453-15.401-45.283c-2.432-5.611-4.53-11.857-9.489-15.783c-22.458-18.056-46.825-33.473-70.46-49.908
			c2.257,6.596,4.021,15.036-1.812,20.377c-9.902,9.807-23.571,14.273-36.048,19.852c7.566-9.203,15.37-19.455,16.212-31.789
			c0.604-8.472-3.847-16.212-9.187-22.411c-7.884,17.166-26.448,25.304-43.995,28.705c7.089-5.897,14.94-11.857,17.802-21.028
			c5.134-15.401-2.225-31.439-10.49-44.281C72.698,295.155,65.943,289.656,60.603,282.869z"/>
	</g>
	<g>
		<path d="M1594.115,507.903c1.816-3.139,4.062-6.032,6.278-8.955c-3.631-7.878-3.631-18.218,6.093-21.327
			c4.71-1.506,14.881-6.004,19.351-2.885c0.774,0.54,4.679,4.277,4.258,5.363c1.737-4.08-1.437-6.7,1.147-9.825
			c1.307-1.58,5.143-3.079,7.172-3.312c1.584-0.182,3.131-0.238,4.788-0.253c6.636-0.06,6.872,1.215,10.838,6.227
			c2.131,2.693,5.277,4.424,7.549,6.983c1.903,2.145,3.749,4.335,5.228,6.798c2.422,4.034,7.977,12.143,8.45,16.448
			c0.504,4.582,4.092,14.677,5.939,19.448c71.563,39.293,106.387,40.665,132.146,52.101
			c110.083,46.663,112.971,27.132,151.534,1.693c20.096-15.942,42.961-30.036,57.025-52.102c-1.816-2.924-3.57-5.816-5.232-8.709
			c5.478-0.646,12.217,1.262,16.772-2.954c11.14-9.54,23.511-17.48,35.298-26.189c17.201-13.174,11.127-1.942,32.221-46.562
			c2.092-5.078,4.031-10.217,6.063-15.326c-31.963-8.944-30.874-25.986-51.394-34.252c-8.278-4.278-17.603-10.463-17.911-20.773
			c1.908-7.109,4.74-13.91,6.894-20.957c-3.478-5.663-6.647-11.54-8.555-17.88c0.892-1.539,2.646-4.616,3.508-6.155
			c-4.291-5.004-4.899-5.346-10.002-11.971c7.448-12.502,8.685-12.993,9.755-23.327c-2.985-6.063-6.309-11.941-8.648-18.249
			c-2.61-17.243,29.62-9.883,35.021-30.805c-3.355-7.232-8.771-13.295-12.341-20.373c4.985,2.677,9.971,5.385,15.049,8.032
			c1.952-4.059,8.708-13.925,4.185-31.513c-2.316-4.495-0.863-1.743-4.647-8.555c0.739-4.093,1.662-8.124,2.585-12.187
			c-4.77,3.047-9.51,6.063-14.249,9.048c0.71-17.377,14.645-36.918,24.158-53.055c22.927-31.668,59.272-51.857,96.786-60.874
			c23.809-5.772,22.297-5.75,29.513-6.278c60.818-2.128,117.193,7.986,163.043,49.701c66.202,59.923,54.452,162.634,9.232,224.223
			c-42.961,57.764-84.938,117.497-111.681,184.801c-1.077-0.462-3.262-1.385-4.339-1.846c-28.996,77.229-19.659,95.464-22.312,133.9
			c-9.081-15.77-3.381-5.298-10.279-14.495c-6.585,38.201-33.563,112.595,1.631,145.533c1.662,3.539,3.201,7.17,4.801,10.864
			c-14.926-0.923-27.697-9.232-36.068-21.357c-9.486,31.129,16.143,58.74,29.544,74.751c-0.739,1.262-2.185,3.785-2.893,5.047
			c-35.697-20.004-40.762-24.724-50.778-53.086c-9.602,14.002,1.816,29.574,6.493,43.146c-7.078-4.555-13.633-9.786-19.726-15.51
			c-0.031,13.049-3.847,26.497-0.769,39.361c22.461,46.554,24.898,191.322,25.666,243.211c-4.401,20.711-1.846,42.007-2.185,62.995
			c6.292,245.395-0.951,248.302,8.217,257.367c0.216,4.893,0.492,9.786,0.769,14.741c-2.647,6.309-3.816,13.079-3.601,19.942
			c0.277,9.909-1.354,21.08,5.632,29.236l0.031,0.37c-1.047,5.324-2.093,10.679-3.17,16.034c-1.631,0.985-4.924,2.954-6.555,3.939
			c-6.863-0.862-13.663-1.846-20.434-2.739c1.974,51.029,33.817,86.495,11.233,101.864c-29.297-1.785-58.687-2.123-87.953-0.585
			c-3.607,0.331-7.558,0.248-10.941,1.429h-51.764c0.293-0.016,0.585-0.027,0.878-0.044c-20.619-1.662-41.392,1.846-61.857-1.846
			c1.323-3.601,2.401-7.694,6.217-9.54c13.029-8.667,64.321-26.134,94.447-41.669c13.849-6.524,30.005-11.818,38.837-25.235
			c3.929-9.512-1.565-34.348-4.74-42.284c-92.49-39.977-98.187-51.994-184.647-39.73c-1.773-22.888,1.095-41.431-0.8-60.564
			c-3.693-49.085-7.263-98.201-13.818-147.041c-2.123-0.462-6.432-1.416-8.586-1.908c1.569-1.446,3.231-2.862,4.924-4.247
			c2.211-29.818-8.715-84.718-13.602-147.687c-5.456-37.668-1.814-34.773-4.986-57.456c-3.452-23.105-15.602-151.842,9.971-250.628
			c1.631-8.709,8.525-17.234,5.262-26.158c8.609-10.801,7.946-10.943,17.08-28.59c-47.578-18.372-94.847-37.514-142.486-55.733
			c-5.474-1.971-13.576-4.677-15.359-10.785c-1.402-4.803-0.098-10.792,1.455-15.299c0.341-0.989,5.23-13.574,4.118-14.201
			c-37.576-21.173-75.09-42.438-112.574-63.765c-1.642-0.934-6.086,0.11-8.079,0.083c-3.559-0.049-7.163-0.223-10.713-0.48
			c-6.719-0.486-13.983-1.522-19.244-6.125c-10.237-8.958-12.867-19.079-12.957-32.468
			C1596.916,525.106,1595.285,516.52,1594.115,507.903z"/>
		<g id="_x23_000000ff">
			<path d="M1660.786,91.146c-1.07,14.068-15.458,25.272-29.373,22.729c-14.416-1.696-25.078-17.307-21.311-31.347
				c2.794-13.137,17.057-22.576,30.221-19.462C1653.001,65.429,1662.537,78.316,1660.786,91.146z"/>
			<path d="M1877.298,117.517c-9.012,3.608-5.77,2.013-134.759-8.438c-6.965-0.931-13.999,4.546-14.596,11.566
				c-0.25,5.116,0.723,10.315-0.417,15.375c-2.113,12.233-11.149,22.784-22.673,27.219c-18.01,7.482-41.864-4.658-57.801,19.573
				c0.083-15.903-0.417-31.834,0.306-47.723c4.759,28.732,35.233,26.543,43.261,10.009c4.198-7.173,2.308-15.611,0.056-23.062
				c-3.545-15.889,10.648-32.181,26.802-31.445c60.887-0.056,121.775-0.083,182.662,0.014
				C1897.065,102.365,1888.627,112.86,1877.298,117.517z"/>
			<path d="M1580.033,114.751c1.251,8.938-5.408,17.488-1.863,26.343c5.086,18.933,36.968,25.597,45.165-4.407
				c-0.056,15.416-0.125,30.819,0.014,46.236c-14.21-23.788-41.367-12.529-58.204-19.851c-13.165-5.171-22.937-18.586-22.715-32.876
				c-0.208-5.241,1.293-11.288-2.363-15.722c-3.156-4.615-9.008-6.103-14.318-5.31c-129.301,11.285-125.088,11.159-132.548,8.911
				c-11.107-3.281-20.032-12.553-23.007-23.729c199.734-4.279,184.903-3.706,187.764-3.295
				C1569.552,92.759,1579.13,103.088,1580.033,114.751z"/>
			<path d="M1844.06,138.619c-5.867,1.778-2.502,2.073-102.841-12.219c-2.03-3.878-4.309-7.632-6.7-11.302
				c2.933-1.293,5.991-2.613,9.272-2.002c39.911,3.434,79.849,6.645,119.745,10.217
				C1858.948,130.334,1852.415,136.576,1844.06,138.619z"/>
			<path d="M1529.002,126.525c-31.208,4.17-62.361,8.702-93.555,12.9c-11.83,1.237-22.506-6.436-28.581-16.042
				c39.619-3.712,79.307-6.756,118.939-10.231c3.545-0.626,6.964,0.487,10.19,1.821
				C1533.575,118.754,1531.198,122.577,1529.002,126.525z"/>
			<path d="M1655.114,129.945c-13.067,0.25-26.162,0.125-39.229,0.07c-4.671,0.542-8.355-5.547-5.255-9.272
				c2.836-3.92,8.243-2.405,12.358-2.739c11.344,0.5,22.868-0.82,34.114,0.653C1662.69,120.659,1661.133,130.056,1655.114,129.945z"
				/>
			<path d="M1707.911,181.226c-32.803,2.488-45.47-6.753-60.526,16.362c4.441-37.572,40.801-22.048,60.387-31.264
				c11.955-5.143,21.213-16.292,23.563-29.151c1.154-5.95,0.348-12.025,0.542-18.03
				C1750.113,139.431,1736.431,176.934,1707.911,181.226z"/>
			<path d="M1539.358,138.425c2.697,12.539,12.011,23.215,23.799,28.122c20.666,9.299,54.198-6.905,59.942,30.763
				c-16.814-22.823-24.417-13.553-60.053-16.028c-27.582-3.539-43.582-40.208-24.55-62.139
				C1538.622,125.566,1537.649,132.127,1539.358,138.425z"/>
			<path d="M1801.939,156.705c-19.253-3.739-38.395-8.146-57.648-11.969c-0.195-4.726-0.626-9.453-1.613-14.096
				c29.624,4.226,59.317,7.965,88.871,12.553C1825.349,153.007,1813.561,158.929,1801.939,156.705z"/>
			<path d="M1526.166,144.666c-17.21,3.642-34.433,7.215-51.629,10.926c-17.454,4.022-26.947-0.49-35.684-12.4
				c29.54-4.629,59.219-8.23,88.787-12.595C1526.889,135.255,1526.389,139.954,1526.166,144.666z"/>
			<path d="M1643.201,261.784c-5.31-1.265-10.634-2.53-15.931-3.878c-0.042-41.273-0.195-82.546-0.167-123.818
				c5.463-0.042,10.926-0.042,16.376-0.014C1643.521,176.639,1643.479,219.219,1643.201,261.784z"/>
			<path d="M1770.453,171.273c-10.343-3.003-20.63-6.186-30.902-9.383c1.738-4.337,3.128-8.786,4.254-13.317
				c18.433,4.073,36.991,7.59,55.383,11.872C1792.208,168.465,1781.212,173.998,1770.453,171.273z"/>
			<path d="M1530.893,161.918c-10.287,3.142-20.574,6.339-30.902,9.356c-10.746,2.683-21.839-2.739-28.734-10.885
				c18.391-4.129,36.894-7.826,55.327-11.76C1527.723,153.146,1529.169,157.58,1530.893,161.918z"/>
			<path d="M1744.166,185.174c-6.492-1.112-12.247-4.629-18.266-7.117c4.421-3.656,8.327-7.868,11.621-12.553
				c10.523,3.225,21.144,6.144,31.542,9.717C1762.668,181.852,1753.41,185.744,1744.166,185.174z"/>
			<path d="M1526.958,185.077c-9.481,0.945-19.059-3.1-25.634-9.884c10.426-3.517,21.033-6.436,31.528-9.703
				c3.295,4.671,7.187,8.897,11.635,12.497C1538.733,180.531,1533.158,183.784,1526.958,185.077z"/>
			<path d="M1720.144,197.505c-25.347,2.703-62.696-6.923-73.468,21.422c5.168-54.653,46.49-22.171,75.081-38.242
				c5.574,2.391,11.177,4.726,16.598,7.451C1733.128,192.612,1727.095,196.546,1720.144,197.505z"/>
			<path d="M1599.523,185.703c10.367,0.359,22.544,9.016,23.938,33.53c-8.931-28.614-48.964-18.996-73.482-21.783
				c-6.853-1.015-12.845-4.852-17.835-9.481c5.449-2.572,10.996-4.907,16.529-7.27
				C1564.478,188.258,1569.263,184.687,1599.523,185.703z"/>
			<path d="M1723.884,214.409c8.633,6.089,11.246,18.503,6.826,27.886c-8.129,17.358-37.17,26.97-57.426,32.626
				c-8.966-6.117-19.184-9.912-29.484-13.067c29.292-8.02,82.582-18.079,71.814-36.241c-2.905-4.212-8.369-6.089-13.331-5.713
				c-4.184,0.306-7.354,3.281-10.495,5.727c-7.507,6.144-17.655,7.673-27.066,7.813c-3.781,0.361-6.492-2.28-8.619-5.004
				c7.076-1.654,14.847-1.613,21.06-5.839c-7.451-0.375-14.902,0.25-22.367,0.264c0.32-3.197,0.556-6.756,3.183-9.022
				c6.478-6.381,16.084-7.813,24.772-8.494C1696.846,204.567,1712.054,205.999,1723.884,214.409 M1674.367,211.962
				c-0.57,0.876-1.724,2.6-2.294,3.461c4.17,1.265,9.606,1.321,11.747-3.267C1680.678,211.92,1677.523,211.879,1674.367,211.962z"/>
			<path d="M1601.163,207.583c7.201,1.849,14.874,6.839,14.652,15.222c-7.576,0.083-15.152-0.57-22.729-0.292
				c6.269,4.365,14.276,4.143,21.394,6.103c-2.294,2.183-4.643,4.949-8.16,4.782c-10.912,0.278-22.45-2.363-30.583-10.065
				c-6.353-6.047-18.836-3.934-21.95,4.49c-4.747,13.062,26.647,21.571,42.941,26.287c37.031,10.496,72.295,12.598,88.328,37.839
				c13.238,19.698,10.425,50.828-22.02,66.531c-2.614-0.876-4.852-2.572-7.243-3.892c-8.786-5.31-18.669-8.271-28.261-11.76
				c-0.139-18.711-0.167-37.408-0.264-56.119c-8.313,3.309-16.946,6.923-23.09,13.707c-7.91,8.355-8.674,22.895-0.653,31.445
				c17.645,19.46,47.512,15.723,66.462,38.979c11.175,13.507,16.981,42.277-15.583,61.944c-8.077-5.644-17.14-9.578-25.968-13.86
				c-0.417-15.583-0.473-31.181-0.653-46.764c-5.116,2.766-10.412,5.616-14.179,10.176c-10.475,12.484-6.262,31.177,18.099,42.26
				c10.76,5.13,22.59,10.204,29.151,20.755c13.865,20.137,1.373,48.757-16.723,50.809c3.044-4.796,7.813-8.355,10.037-13.679
				c4.476-9.689,4.49-22.159-2.752-30.527c-7.521-9.425-20.073-11.566-30.374-16.654c-35.349-16.312-37.77-52.114-13.109-72.092
				c11.191,5.269,23.438,7.715,34.6,13.081c-0.25,15.583-0.181,31.181-0.361,46.778c8.007-4.587,15.903-10.801,18.989-19.823
				c2.891-8.327-0.417-17.849-6.909-23.521c-16.811-14.865-41.465-12.003-63.362-32.543c-18.018-17.525-18.3-49.677,6.909-68.297
				c14.29,4.462,29.081,7.131,43.414,11.343c2.697,0.361,1.626,3.503,1.904,5.31c-0.222,17.112-0.208,34.239-0.403,51.365
				c17.179-7.158,32.693-16.183,29.29-34.559c-1.001-8.48-7.674-14.902-14.68-19.059c-22.187-13.552-96.484-18.856-115.492-47.181
				c-5.533-7.882-5.727-19.378,0.125-27.135C1553.383,204.404,1583.417,202.71,1601.163,207.583 M1586.748,213.394
				c3.322,3.336,8.66,3.851,12.261,0.695C1595.283,212.157,1590.418,210.169,1586.748,213.394z"/>
			<path d="M1635.458,561.314c-1.474-2.627-2.614-5.449-2.85-8.466c-2.767-21.778-3.926-94.792-4.004-108.944
				c-5.13,3.225-10.051,7.229-12.734,12.817c-4.282,8.104-3.169,17.988,0.528,26.079c2.321,5.13,6.784,8.744,10.037,13.22
				c-19.338-1.621-34.599-35.858-10.12-58.802c8.396,3.823,17.085,6.951,25.398,10.968
				C1640.508,507.008,1640.38,550.131,1635.458,561.314z"/>
		</g>
	</g>
</g>
</svg>
